<svg height="700pt" preserveAspectRatio="xMidYMid meet" viewBox="0 0 700 700" width="700pt" xmlns="http://www.w3.org/2000/svg"><g transform="matrix(.1 0 0 -.1 0 700)"><path d="m0 3503c0-1685 3-3063 8-3064 37-4 6976-3 6983 2 5 3 8 1244 7 3064l-3 3058-3498 1-3497 1zm6561 2602c4-93 3-5225-1-5226-28-7-6113-2-6118 5-4 7-7 5210-3 5236 1 3 1378 5 3061 5 3053 0 3060 0 3061-20z"/><path d="m883 5681c-5-3-9-923-8-2187v-2182h2622c2007-1 2622 2 2625 11 2 7 4 991 4 2187l-1 2175-2616 1c-1439 1-2621-1-2626-5zm1259-871h47l-1-208c-1-115 1-213 4-218 4-5 97-9 217-9 135 0 211-3 212-10 6-48 2-418-4-422-11-7-416-8-422-1-3 3-6 102-6 219l-1 214h-217-216l-3 217-2 217 42 3c24 2 102 2 173 1 72-1 151-2 177-3zm919-904c1-45 1-346 0-378l-1-28h-218-217v-218-219h-217-218l-1 58v204 160c1 12 35 15 219 17l217 3 1 210c1 116 2 213 3 216 0 3 98 6 216 6l215 1zm-878-845c12-1 6-429-7-434-6-2-103-3-216-3l-205 1-3 217-2 217 22 3c18 2 382 1 411-1zm2622-3c5-4 8-236 6-378l-1-55h-655-655v217 217l38 3c61 5 1262 1 1267-4z"/></g></svg>