<?xml version="1.0" standalone="no"?>
<!DOCTYPE svg PUBLIC "-//W3C//DTD SVG 20010904//EN"
 "http://www.w3.org/TR/2001/REC-SVG-20010904/DTD/svg10.dtd">
<svg version="1.0" xmlns="http://www.w3.org/2000/svg"
 width="700.000000pt" height="700.000000pt" viewBox="0 0 700.000000 700.000000"
 preserveAspectRatio="xMidYMid meet">
<metadata>
Created by potrace 1.11, written by Peter Selinger 2001-2013
</metadata>
<g transform="translate(0.000000,700.000000) scale(0.100000,-0.100000)"
fill="#000000" stroke="none">
<path d="M0 3503 c0 -1685 3 -3063 8 -3064 37 -4 6976 -3 6983 2 5 3 8 1244 7
3064 l-3 3058 -3498 1 -3497 1 0 -3062z m6561 2602 c4 -93 3 -5225 -1 -5226
-28 -7 -6113 -2 -6118 5 -4 7 -7 5210 -3 5236 1 3 1378 5 3061 5 3053 0 3060
0 3061 -20z"/>
<path d="M883 5681 c-5 -3 -9 -923 -8 -2187 l0 -2182 2622 0 c2007 -1 2622 2
2625 11 2 7 4 991 4 2187 l-1 2175 -2616 1 c-1439 1 -2621 -1 -2626 -5z m1259
-871 l47 0 -1 -208 c-1 -115 1 -213 4 -218 4 -5 97 -9 217 -9 135 0 211 -3
212 -10 6 -48 2 -418 -4 -422 -11 -7 -416 -8 -422 -1 -3 3 -6 102 -6 219 l-1
214 -217 0 -216 0 -3 217 -2 217 42 3 c24 2 102 2 173 1 72 -1 151 -2 177 -3z
m919 -904 c1 -45 1 -346 0 -378 l-1 -28 -218 0 -217 0 0 -218 0 -219 -217 0
-218 0 -1 58 c0 33 0 124 0 204 0 80 0 152 0 160 1 12 35 15 219 17 l217 3 1
210 c1 116 2 213 3 216 0 3 98 6 216 6 l215 1 1 -32z m-878 -845 c12 -1 6
-429 -7 -434 -6 -2 -103 -3 -216 -3 l-205 1 -3 217 -2 217 22 3 c18 2 382 1
411 -1z m2622 -3 c5 -4 8 -236 6 -378 l-1 -55 -655 0 -655 0 0 217 0 217 38 3
c61 5 1262 1 1267 -4z"/>
</g>
</svg>
